ply
format ascii 1.0
comment VCGLIB generated
element vertex 453
property float x
property float y
property float z
property float nx
property float ny
property float nz
property uchar red
property uchar green
property uchar blue
property uchar alpha
element face 948
property list uchar int vertex_indices
end_header
-0.0312216 0.126304 0.00514924 0.800661 6.06317 -1.02946 0 255 84 255 
-0.0446774 0.131204 0.00570479 3.81074 4.26369 -1.43809 0 255 106 255 
-0.0683011 0.144828 0.0413688 1.59195 2.94913 4.37239 0 255 128 255 
-0.00600095 0.130398 0.0178986 -0.863645 6.05358 0.710423 0 255 69 255 
-0.0173568 0.127613 0.00526885 -1.10642 6.04089 -1.0042 0 255 99 255 
0.0330513 0.107034 0.0319543 4.19282 2.87811 3.45834 59 255 0 255 
0.0400873 0.10521 0.0173419 5.54422 2.63735 0.543527 24 255 0 255 
-0.0301802 0.106322 0.0399745 -0.665727 2.92085 5.47752 149 255 0 255 
0.0304193 0.118572 0.0188068 4.20689 4.2897 0.78599 0 255 36 255 
-0.0640822 0.159391 -0.0169096 4.19719 2.90921 0.657147 0 255 244 255 
0.0447046 0.0927877 0.00507585 5.91852 1.28425 -0.786343 95 255 0 255 
-0.0316754 0.170395 -0.00635023 2.52375 1.63326 5.3037 0 173 255 255 
-0.0848523 0.134078 0.0470177 -3.51811 1.66388 4.19527 0 255 151 255 
-0.0688547 0.122052 0.0517569 2.31883 -0.603639 3.91705 0 255 47 255 
0.00595475 0.131024 0.0178252 0.67901 5.96005 0.773551 0 255 80 255 
0.0404629 0.105142 0.00640978 5.46586 2.72083 -0.457233 28 255 0 255 
0.0387342 0.102161 -0.00463112 4.85942 2.1031 -2.85842 64 255 0 255 
-0.0914513 0.134136 0.0171026 -6.20778 0.491592 -0.307226 0 255 174 255 
-0.0818721 0.107166 0.031016 -4.60122 -2.07181 3.28912 0 255 19 255 
-0.067218 0.156155 0.0178863 0.113642 6.11048 0.308088 0 255 220 255 
-0.0795687 0.152875 0.0299311 -1.84719 5.05068 1.95549 0 255 225 255 
0.00596007 0.122504 0.0346272 0.782007 4.00484 4.54536 23 255 0 255 
-0.0516317 0.145001 0.0184804 5.22627 2.23182 2.45956 0 255 121 255 
-0.0779781 0.13255 0.0513494 -0.535753 1.84264 4.74271 0 255 121 255 
-0.00590708 0.127934 0.0274623 -0.796251 5.45161 2.57853 0 255 24 255 
-0.0479133 0.129301 0.0269646 3.78745 3.32473 3.48656 0 255 15 255 
-0.082427 0.0928134 -0.00556046 -5.08722 -0.0704319 -3.34775 93 255 0 255 
0.01744 0.127694 0.0185348 2.59027 5.38391 0.835645 0 254 66 254 
-0.0906868 0.120305 0.0066804 -5.24343 -0.320208 -2.56186 0 255 79 255 
-0.0294038 0.17903 -0.00787959 -0.654571 2.04431 1.81316 0 123 255 255 
-0.0797891 0.14376 0.0426994 -1.34651 3.69937 3.94795 0 255 161 255 
-0.018288 0.108329 0.0415098 -1.19965 2.82002 5.43588 131 255 0 255 
-0.0202326 0.181846 -0.0183274 0.209071 1.07384 -0.14353 0 62 255 255 
-0.0377039 0.167987 -0.0130391 -3.02329 1.46661 -4.19739 0 183 255 255 
0.00582164 0.12806 0.0279016 0.597557 5.33442 2.75344 0 255 24 255 
-0.0435389 0.130014 0.0175333 3.6527 4.61572 1.44129 0 255 42 255 
0.0188699 0.119862 0.032409 2.23514 4.05813 3.95383 21 255 0 255 
-0.0440101 0.167035 0.00231898 -0.193448 3.26015 3.61279 0 232 255 255 
-0.089811 0.132401 0.00705743 -5.45372 0.66319 -2.51922 0 255 137 255 
-0.057352 0.144989 0.0315196 4.50378 1.89833 3.39948 0 255 105 255 
0.0442622 0.0934526 0.0176417 5.88748 1.39144 0.986846 75 255 0 255 
0.0412343 0.0921731 0.0285603 5.53636 1.19632 2.3848 118 255 0 255 
-0.0563953 0.154565 0.016878 3.05255 4.40886 1.1278 0 255 177 255 
-0.0206135 0.159773 -0.00717522 1.53537 -1.39943 1.51782 0 143 255 255 
-0.0729893 0.0656116 0.0181693 -3.58934 -4.83593 1.07717 213 255 0 255 
-0.0673967 0.155256 0.00581389 0.433932 5.78066 -1.15481 0 255 232 255 
-0.0904864 0.118611 0.0412148 -4.07868 -1.85052 1.72846 0 254 88 254 
0.0273142 0.117965 0.0286191 3.39653 3.7206 2.82215 0 255 10 255 
0.041907 0.0916386 -0.00556945 5.42828 1.22211 -2.47302 122 255 0 255 
-0.0702109 0.165303 -0.0194661 0.830779 3.48517 1.15249 0 220 255 255 
-0.0061847 0.122729 0.034787 -0.608065 4.35098 4.20807 24 255 0 255 
0.0300138 0.0932786 0.0421476 3.48865 1.5322 4.80811 149 254 0 254 
-0.0175129 0.162126 -0.0145489 1.87953 -1.12795 -0.896114 0 110 255 255 
-0.0763977 0.171291 -0.0411021 -1.49306 0.440926 0.203605 0 119 255 255 
-0.0854227 0.105386 0.00339486 -5.39809 0.0833356 -3.15204 7 255 0 255 
0.0370431 0.110443 0.0207229 4.69019 3.473 0.758418 10 255 0 255 
-0.00659732 0.0427285 0.0469391 0.159647 -2.79668 6.08518 255 0 0 255 
0.00639794 0.0437006 0.046826 1.29819 -2.94863 5.32724 255 53 0 255 
-0.0559247 0.157606 0.00656455 -1.32189 4.68284 0.909157 0 255 219 255 
-0.0911449 0.118816 0.0298442 -5.59585 -1.76641 1.02175 0 255 99 255 
-0.0595109 0.128352 0.0399626 4.14629 0.987027 4.35704 0 255 23 255 
-0.0176335 0.127605 0.0179366 -1.38586 5.92542 1.12999 0 255 33 255 
-0.066633 0.153831 0.0308703 0.771834 4.8459 2.74622 0 255 173 255 
-0.0436418 0.169438 -0.00550226 -2.99647 3.42178 -1.50821 0 207 255 255 
-0.0572759 0.043243 0.042862 -1.0671 2.41443 3.22982 255 112 0 255 
-0.0763773 0.157221 -0.0168889 -4.67832 0.466731 0.313775 0 255 242 255 
-0.0434461 0.15605 0.00615795 3.06629 0.0750842 3.49882 0 255 214 255 
-0.0427118 0.0421645 0.0427004 -1.10667 0.948295 5.8182 255 76 0 255 
-0.0254201 0.0886622 0.0503827 -3.51673 1.10061 4.67914 250 255 0 255 
-0.014179 0.12627 0.0266417 -2.0354 5.08964 2.49075 0 255 0 255 
-0.0882582 0.0898687 0.00696625 -5.70444 -0.981706 -1.29158 59 255 0 255 
-0.0688695 0.157773 -0.00687593 2.07791 3.54207 1.64742 0 255 219 255 
-0.0679676 0.142877 -0.00757643 1.13779 -0.42558 -4.77783 0 255 138 255 
0.0188538 0.106293 0.0416902 1.55968 2.85 5.29663 109 255 0 255 
-0.036487 0.171225 0.000545037 0.613359 0.607314 0.954492 0 187 255 255 
-0.0664352 0.117198 -0.00987161 -1.80088 1.5336 -5.75431 2 255 0 255 
-0.0682606 0.170398 -0.0436995 1.77566 1.05089 -0.315542 0 109 255 255 
-0.090925 0.14605 0.0190382 -4.70918 2.32566 -0.086975 0 255 235 255 
0.00678622 0.115841 0.0388077 0.865821 3.1336 5.31293 65 255 0 255 
0.0310139 0.0930696 -0.017798 3.48133 1.73247 -4.78278 119 255 0 255 
0.0056976 0.10589 0.0435511 0.699281 3.1051 5.38609 126 255 0 255 
-0.0706519 0.13063 0.0502497 2.40019 2.62182 4.31902 0 255 82 255 
0.0059746 0.130858 0.00579479 0.620567 5.9489 -0.920795 0 255 146 255 
0.0184217 0.0423182 0.042477 2.91697 -2.62587 4.46505 255 79 0 255 
0.0147876 0.0909747 0.0509658 2.0891 2.09372 5.40486 209 255 0 255 
-0.00598232 0.115409 0.0402027 -0.196248 3.02523 5.36216 74 255 0 255 
-0.0811312 0.117972 -0.00359453 -3.87741 0.047445 -4.76999 0 255 33 255 
-0.0787032 0.144274 -0.00389052 -4.25564 0.397042 -4.01293 0 255 162 255 
0.00581988 0.106226 -0.0208968 0.737251 3.18148 -5.34884 2 255 0 255 
-0.0192761 0.119853 0.0328061 -1.76537 4.50905 3.85589 56 255 0 255 
-0.00593116 0.130215 0.005954 -0.805834 6.06983 -0.807814 0 255 123 255 
-0.0893322 0.142745 0.0290326 -5.36232 2.29831 1.44449 0 255 228 255 
-0.00762538 0.123273 -0.00981555 -0.585346 4.76828 -3.90712 0 255 80 255 
-0.0692263 0.178922 -0.0542743 0.541873 1.54492 -1.0719 0 35 255 255 
-0.0298757 0.124252 0.0209674 0.277904 5.56457 2.73271 4 255 0 255 
-0.0848266 0.148987 0.0327697 -3.47031 3.39625 1.29525 0 255 225 255 
-0.0888516 0.0909723 0.0179034 -5.55733 -0.904288 1.24806 49 255 0 255 
-0.0305879 0.122384 -0.00635771 0.560623 5.40485 -3.02394 0 255 47 255 
-0.0307198 0.117989 0.0306166 -0.47118 4.53889 4.23322 67 255 0 255 
-0.0780612 0.120653 0.0513999 -1.38691 -1.60839 4.9694 0 255 67 255 
0.0332714 0.108498 -0.00743195 3.95177 3.10983 -3.34892 30 255 0 255 
-0.0677112 0.0928918 -0.0168814 -2.36673 0.74178 -5.67582 133 255 0 255 
-0.075666 0.0911817 -0.0136967 -3.40955 0.301359 -4.65627 122 255 0 255 
-0.082422 0.0951121 0.0310878 -4.93504 -0.112961 3.53346 41 255 0 255 
-0.0856984 0.136903 0.00192122 -4.89735 0.989942 -3.60946 0 255 144 255 
-0.0292804 0.0417747 0.051397 -2.42574 0.483661 3.82233 255 59 0 255 
-0.017732 0.0423864 0.051684 1.63649 1.22849 4.12981 255 46 0 255 
-0.0656987 0.171007 -0.056644 0.351464 0.246088 -1.33487 0 50 255 255 
-0.0298523 0.170905 -0.0165609 -2.28324 0.442234 -4.93034 0 135 255 255 
-0.0562502 0.135013 0.0330455 4.75621 1.60748 3.73349 0 255 49 255 
-0.0666127 0.133021 0.0447044 3.56476 2.01904 4.53752 0 255 68 255 
-0.0425379 0.155441 -0.00749353 -0.330704 -2.86994 -3.31001 0 255 246 255 
-0.0545308 0.0714603 0.0397042 -1.22077 -3.12848 5.19273 232 255 0 255 
-0.0413159 0.0906923 -0.0225881 -1.32976 0.049646 -6.03597 182 255 0 255 
-0.0172876 0.0921774 0.0536212 -1.54394 2.53625 4.84899 231 255 0 255 
-0.00598119 0.0940308 0.0542643 -0.284773 2.74011 5.24364 215 255 0 255 
0.0423724 0.0672563 0.0295801 4.00277 0.892095 4.47592 228 255 0 255 
0.0285741 0.116909 -0.00391772 3.68783 3.87912 -2.57079 0 255 24 255 
-0.0331811 0.0450744 0.0451146 -3.18314 1.69197 4.7316 255 58 0 255 
-0.0539402 0.118566 0.0353731 3.03248 1.55406 5.05155 41 255 0 255 
0.0422724 0.0795546 -0.00579461 5.54853 -0.100775 -2.78003 188 255 0 255 
0.0297273 0.0425502 0.0304975 2.92004 -4.18917 3.51483 255 119 0 255 
-0.0315639 0.0959331 -0.0236801 -2.42934 2.17206 -5.04728 124 255 0 255 
0.0381804 0.105121 0.0266947 4.88724 2.35768 2.41469 54 255 0 255 
-0.0284988 0.090492 -0.0290854 -3.12411 2.22129 -4.81491 169 255 0 255 
-0.0173189 0.0437942 0.0432695 0.596707 -1.44729 2.69878 255 0 0 255 
0.00376754 0.0477551 0.0502037 1.05626 -2.83672 5.21583 255 65 0 255 
0.0432673 0.0458291 0.0278251 2.39344 -3.59762 3.77427 255 197 0 255 
-0.0233322 0.181239 -0.0112893 1.11179 1.21606 0.94797 0 93 255 255 
-0.0056258 0.0565038 0.0538818 -0.825891 -1.95073 5.73254 255 84 0 255 
0.00529431 0.0556798 0.0532881 1.31396 -1.87563 5.63675 255 102 0 255 
-0.0883219 0.105757 0.0172983 -6.00062 -1.01442 0.936944 0 255 30 255 
-0.0566374 0.0470184 0.0305809 -4.17354 3.97553 1.31544 255 133 0 255 
-0.0296243 0.0543188 0.0398951 -1.75463 1.26057 5.1027 255 116 0 255 
-0.00597407 0.105897 0.0440669 -0.411926 3.12782 5.37819 130 255 0 255 
-0.0214122 0.0546976 0.044641 -2.88769 0.450751 4.94576 255 64 0 255 
-0.0161488 0.0574363 0.050904 -2.93629 -1.73923 4.93683 255 85 0 255 
-0.0568305 0.146392 -0.0026426 0.653206 1.52647 -5.49916 0 255 153 255 
-0.0931466 0.119067 0.0179948 -5.79817 -0.69654 -0.138103 0 255 107 255 
-0.061862 0.158417 -0.0293026 1.81953 -0.0474096 1.03795 0 217 255 255 
-0.0855858 0.10684 0.021729 3.57628e-007 7.15256e-007 -5.96046e-008 0 255 59 255 
0.0336642 0.0540543 0.0350841 3.41781 -1.78057 4.87136 255 190 0 255 
0.042771 0.0560351 0.031559 2.34492 -0.288283 5.60648 255 230 0 255 
-0.0434589 0.117191 0.0317044 1.31434 3.51988 4.90378 59 255 0 255 
-0.0680962 0.156721 -0.0426174 -0.231264 -1.68743 -1.83019 0 162 255 255 
0.0272384 0.103156 0.0397058 3.02615 2.28489 4.81977 92 255 0 255 
-0.0293932 0.178536 -0.0145563 -3.41316 2.36083 -1.72488 0 92 255 255 
-0.0762697 0.0912245 0.0383419 -3.31106 0.797498 4.31706 71 255 0 255 
-0.0191285 0.0985952 0.0456676 -1.59578 3.47981 4.87853 187 255 0 255 
-0.053091 0.0567402 0.0293963 -4.62801 -1.64722 2.77104 255 189 0 255 
-0.0431978 0.0555777 0.0390838 -2.15986 0.152051 5.71243 255 152 0 255 
-0.0833055 0.115643 0.046828 -2.41051 -2.82132 3.6778 0 255 56 255 
0.0144345 0.127081 0.026297 2.10814 4.87606 2.16971 0 255 27 255 
-0.0388913 0.123761 0.0249778 1.76747 4.58179 3.79601 15 255 0 255 
-0.0594359 0.119905 0.0399756 3.87601 -0.377742 4.86346 17 255 0 255 
-0.0702332 0.154262 -0.0312401 -1.35952 -2.87668 -1.7757 0 226 255 255 
-0.0574473 0.152576 0.0284508 2.90403 2.51945 1.98348 0 255 149 255 
-0.0480038 0.056366 0.0362663 -2.43934 -3.50074 2.90261 255 183 0 255 
-0.0107262 0.179662 -0.0277472 0.631438 0.484555 -0.689911 0 0 255 255 
-0.0882293 0.106066 0.00846756 -5.9387 -0.482716 -1.55133 0 255 24 255 
-0.078994 0.153984 0.00651862 -3.00517 4.70517 -0.990861 0 255 238 255 
-0.0295675 0.126072 0.0146338 0.379063 6.13153 0.761333 0 255 31 255 
-0.0817356 0.15439 0.0177332 -2.59966 5.02813 -0.0570666 0 232 255 255 
-0.0795469 0.104194 -0.00620274 -4.29872 0.937798 -4.33195 39 255 0 255 
-0.0248608 0.122913 0.0245429 -1.0268 5.40807 3.02247 19 255 0 255 
-0.0664416 0.159957 -0.0533713 -0.092918 -0.556778 -0.108476 0 99 255 255 
-0.0784878 0.0705283 0.0174461 -4.62525 -3.96426 0.700164 174 255 0 255 
-0.00967101 0.173225 -0.0264945 1.64183 -0.703279 -1.42018 0 12 255 255 
-0.0566284 0.0547031 0.00744563 -5.18269 -1.66933 0.0383001 255 181 0 255 
-0.0184015 0.122219 -0.00775134 -0.907772 5.26822 -3.23127 0 255 58 255 
-0.0695952 0.146412 -0.018032 -0.939281 -3.78083 -1.374 0 255 199 255 
-0.0412517 0.123196 -0.00958087 0.694004 4.51332 -3.96877 0 255 12 255 
-0.0684972 0.148194 -0.028726 -0.108569 -1.91399 -1.1232 0 251 255 255 
-0.0540036 0.055543 0.0177674 -4.29521 -1.76281 0.751256 255 181 0 255 
-0.0169203 0.0682168 0.0531499 -3.11336 -1.54087 5.04099 255 144 0 255 
-0.00607221 0.0677102 0.0564501 -0.527165 -1.06097 6.01608 255 147 0 255 
0.00708728 0.0673218 0.0553369 1.47333 -0.738086 5.90527 255 162 0 255 
-0.0143174 0.116971 0.037836 -1.65583 3.49105 4.74608 75 255 0 255 
0.0538923 0.0557547 0.0266244 3.62897 -1.04948 3.76612 243 255 0 255 
0.00517855 0.0931738 0.0535873 1.18397 2.48675 5.31071 214 255 0 255 
-0.0431038 0.0674388 0.0407737 -1.08476 -1.28747 5.97106 255 211 0 255 
-0.0293069 0.0680733 0.041016 -1.93262 -1.05323 5.41612 255 151 0 255 
-0.0379555 0.161954 -0.0128021 -1.90104 -1.78211 -4.28647 0 210 255 255 
-0.0561165 0.0654329 0.0341979 -2.49511 -3.21171 4.73237 255 246 0 255 
-0.0761707 0.155559 -0.0059272 -3.77405 3.89073 0.395646 0 255 226 255 
-0.0552181 0.122506 -0.00946488 0.0456975 3.18993 -5.31308 0 255 15 255 
0.0177004 0.105983 -0.0186138 2.1401 2.86537 -5.09459 31 255 0 255 
0.0534583 0.0656375 0.0264336 2.65126 2.11707 3.18877 191 255 0 255 
-0.0869152 0.0944156 0.00293118 -5.70458 0.285861 -2.17594 40 255 0 255 
-0.0764257 0.161707 -0.0297517 -4.83643 -1.67585 -1.98019 0 200 255 255 
-0.0440959 0.127453 -0.00327875 1.56784 5.15947 -3.02471 0 254 54 254 
-0.0312919 0.0798298 0.0434944 -2.359 -0.921427 5.35723 255 213 0 255 
-0.0549448 0.106348 -0.0185625 -1.21899 1.81846 -5.7351 84 255 0 255 
-0.0723735 0.110057 -0.00943257 -2.94571 1.47121 -5.33625 29 255 0 255 
-0.0553659 0.0919829 -0.0211783 -1.25348 0.311419 -5.98969 161 255 0 255 
-0.0488091 0.0660127 0.0373959 -0.0595373 0.111371 0.0742164 255 248 0 255 
-0.0473086 0.145156 0.00688469 5.97654 -1.05094 0.420987 0 255 155 255 
-0.0803913 0.129634 -0.00469755 -3.34774 0.193497 -4.93936 0 255 89 255 
-0.041802 0.105934 -0.0198692 -0.604479 1.95361 -5.89227 97 255 0 255 
-0.00632139 0.0931652 -0.0328935 0.805645 3.03889 -5.21605 85 255 0 255 
-0.00597054 0.106138 -0.0222282 0.250828 3.56911 -5.15204 14 255 0 255 
-0.0294827 0.158293 -0.00619266 1.6529 -3.15666 1.36315 0 192 255 255 
-0.0177953 0.106289 -0.0217771 -0.275488 3.63311 -5.1102 48 255 0 255 
-0.0885261 0.137839 0.0393964 -4.78186 2.38732 2.11102 0 255 188 255 
-0.0674935 0.128392 -0.00863471 -0.463627 0.790327 -6.05903 0 255 59 255 
0.0463693 0.0715128 0.0216754 3.89163 2.43069 3.53496 174 255 0 255 
-0.0409565 0.117168 -0.0145809 0.100541 3.55111 -5.03876 29 255 0 255 
-0.0106656 0.167541 -0.0199013 0.462485 -0.728348 0.281277 0 54 255 255 
-0.0532547 0.157456 -0.00281896 -3.68308 1.09192 -3.68069 0 255 217 255 
0.00530988 0.0933129 -0.0301852 1.5056 2.51714 -5.37271 69 255 0 255 
-0.0773436 0.0727226 0.0266546 -4.0412 -3.57962 2.59117 156 255 0 255 
-0.0625087 0.149934 -0.0150319 3.58362 -1.22914 0.488695 0 255 201 255 
-0.0688014 0.0685726 0.0306649 -3.07954 -4.12815 3.29103 212 255 0 255 
-0.0545252 0.0808478 -0.0201707 -0.888463 -1.58353 -5.8465 221 255 0 255 
-0.0436768 0.078916 0.0428855 -0.160097 -0.881676 6.19149 255 252 0 255 
-0.0185748 0.0789703 0.0557353 -2.41536 -0.302791 5.16494 255 204 0 255 
-0.00599993 0.0794548 0.0578008 -0.0589247 0.333999 5.99934 255 212 0 255 
0.00706485 0.0811917 0.0558187 1.42732 0.514455 5.93758 255 232 0 255 
-0.0850269 0.146034 0.00585954 -4.73878 2.75543 -2.60617 0 255 197 255 
0.0370111 0.110397 0.00265294 4.75035 3.4949 -1.01544 7 255 0 255 
-0.0683084 0.0803316 0.0407109 -2.43032 -1.89957 4.99667 142 255 0 255 
-0.055894 0.0792594 0.0435335 -0.608448 -1.51943 5.7384 201 254 0 254 
0.0381456 0.0881056 -0.0138675 4.3079 1.27961 -3.65512 144 255 0 255 
-0.0642837 0.0396418 0.039624 -3.40709 1.3596 2.27309 255 91 0 255 
-0.0698696 0.168536 -0.0313319 1.46512 3.25828 0.823376 0 167 255 255 
-0.061796 0.155741 -0.0207923 3.70697 0.663385 -1.02193 0 255 246 255 
-0.0622848 0.16236 -0.0396288 3.70632 0.3047 -1.33168 0 158 255 255 
-0.0686864 0.0923704 0.0421978 -2.03853 0.147076 5.65239 104 255 0 255 
-0.049353 0.139298 0.0147955 5.53732 2.0634 0.490076 0 255 102 255 
-0.0784177 0.110126 0.0417886 -1.8632 -4.63078 2.95153 0 254 7 254 
0.0179416 0.0792747 0.0518862 2.77747 0.120674 5.47433 255 248 0 255 
0.00532732 0.123661 -0.00997105 0.530948 4.73552 -3.87693 0 255 95 255 
-0.0556774 0.0935206 0.044207 -0.187149 0.57439 6.06886 154 255 0 255 
-0.0431924 0.0921154 0.0432689 -0.0406275 0.551385 6.22398 204 255 0 255 
-0.0298626 0.0940124 0.0444805 -1.86755 1.63116 5.58891 220 255 0 255 
0.0205955 0.087113 0.0492325 2.98266 1.10021 5.35426 214 255 0 255 
0.01721 0.127663 0.00512593 2.54752 5.40396 -0.911813 0 254 122 254 
-0.0290125 0.106719 -0.0207479 -0.680346 2.96106 -5.45042 69 255 0 255 
0.0185443 0.0948112 0.0477587 2.07171 2.50312 5.25406 178 255 0 255 
-0.00588676 0.116622 -0.0160049 -0.132548 3.63508 -5.05811 0 255 41 255 
-0.0528191 0.162649 0.00296711 -2.63261 2.91664 1.37635 0 255 252 255 
0.0358078 0.0958594 -0.0120328 4.47108 1.58333 -3.9165 104 255 0 255 
-0.0912064 0.131415 0.0295307 -6.17941 0.567898 0.565978 0 255 167 255 
-0.067874 0.106952 0.0403725 -0.443601 -1.23136 5.58704 52 255 0 255 
-0.0441636 0.104918 0.0401706 0.169259 2.43214 5.74039 136 255 0 255 
0.00749586 0.09835 0.0488255 2.98023e-007 0 0 174 255 0 255 
-0.0554961 0.103898 0.0411405 0.240671 2.26211 5.8235 109 255 0 255 
-0.0669044 0.115717 0.0473479 2.52066 -2.3174 3.99701 0 255 4 255 
-0.0501524 0.140326 0.00258818 4.37342 -0.325959 -4.07007 0 255 141 255 
-0.0554508 0.13242 -0.00485445 2.52106 2.11485 -5.19536 0 255 75 255 
-0.014752 0.181897 -0.0262781 -0.304928 1.47199 -0.953678 0 13 255 255 
-0.029558 0.161783 -0.0143368 -0.535815 -3.3773 -4.19705 0 164 255 255 
-0.0561854 0.111277 0.0373713 0.971758 1.2752 5.72517 69 255 0 255 
-0.040984 0.110496 0.0370883 0.477306 2.8396 5.20009 108 255 0 255 
-0.0320055 0.110468 0.0370438 0.191491 3.88344 4.83354 120 255 0 255 
0.0250033 0.110611 0.0368459 2.7931 3.30751 4.22748 60 255 0 255 
-0.046987 0.147434 -0.00222536 2.51844 -2.34076 -3.00168 0 255 189 255 
-0.0183407 0.0352362 0.0507938 1.80673 -2.00194 1.89564 255 27 0 255 
-0.0178406 0.170484 -0.0181143 0.495572 -0.755322 -0.151539 0 77 255 255 
-0.0569472 0.0349416 0.0423717 -0.646239 -2.92595 3.12422 255 69 0 255 
0.00583339 0.0351076 0.0420914 0.541432 -2.35221 2.7211 255 0 0 255 
-0.0428024 0.0351574 0.0416872 -0.0498382 -3.76504 3.22386 255 64 0 255 
-0.066462 0.104777 -0.0148582 -2.61142 1.5699 -5.39288 73 255 0 255 
0.0257452 0.0459137 0.0381185 3.903 -2.74696 3.97628 255 130 0 255 
0.0379451 0.0817167 -0.0141547 4.42815 -1.30062 -3.5566 179 255 0 255 
-0.0844262 0.0797714 0.0186332 -5.39009 -2.5234 1.1149 114 255 0 255 
0.0532504 0.04759 0.0181903 4.05877 -3.92119 1.20825 255 201 0 255 
0.0186424 0.0536035 0.046215 2.90616 -1.75866 5.23516 255 125 0 255 
0.00732515 0.118243 -0.0153012 0.714493 3.55249 -4.80746 0 255 55 255 
-0.0314704 0.157066 0.000976216 0.35551 -0.00684118 0.30009 0 223 255 255 
0.0286229 0.056876 0.0407635 3.63549 -1.44068 4.83309 255 174 0 255 
0.0581591 0.0550016 0.0180254 5.18226 -1.32466 0.971206 255 250 0 255 
0.016864 0.089935 -0.0269104 2.54054 1.72635 -5.37471 115 255 0 255 
0.0145778 0.0585769 0.0501691 2.79799 -1.56516 5.33637 255 158 0 255 
0.0367248 0.0918184 0.0366248 4.58386 1.22264 3.75307 144 255 0 255 
-0.0198801 0.166404 -0.0112699 4.09975 2.30292 3.18429 0 116 255 255 
0.0150294 0.0677357 0.0520671 2.73745 -0.896686 5.52134 255 187 0 255 
0.0210524 0.0681161 0.0484346 3.45228 -1.01701 5.12386 255 207 0 255 
0.0298776 0.0679936 0.0419172 3.73763 -0.835311 4.9704 255 226 0 255 
0.0368358 0.0678495 0.036641 4.35876 -0.686198 4.2864 255 253 0 255 
0.0574748 0.0682218 0.0171425 4.34026 2.2521 0.922012 186 255 0 255 
0.0316842 0.0785087 -0.019208 4.01534 -0.283998 -4.7157 199 254 0 254 
-0.0760271 0.175704 -0.0506937 -3.32169 -0.0525089 -2.09643 0 62 255 255 
-0.0655396 0.0607885 0.0175707 -3.0493 -5.2839 0.85203 255 248 0 255 
-0.0806026 0.081447 0.0306516 -4.62162 -1.92763 3.06345 117 255 0 255 
0.0189749 0.121506 -0.00694565 2.61668 4.29668 -3.38035 0 255 58 255 
0.030684 0.0795461 0.0431507 3.91285 -0.134167 4.80868 225 255 0 255 
0.0371888 0.0792484 0.0367937 4.74313 -0.077433 4.01486 205 255 0 255 
0.0419366 0.0795911 0.0295911 5.51939 0.409466 2.84228 176 255 0 255 
0.046032 0.0793694 0.0177694 5.51945 2.05904 1.596 126 255 0 255 
-0.0787921 0.0707773 0.00685585 -4.73706 -3.79783 -0.705188 177 254 0 254 
-0.0293987 0.115917 -0.0147065 -0.00686349 4.20835 -4.58798 9 255 0 255 
-0.0869924 0.113518 0.00410409 -0.488258 -0.368468 0.584643 0 255 37 255 
-0.0142186 0.174013 -0.0259807 -2.47774 -1.82763 -4.02371 0 26 255 255 
0.0174795 0.0352131 -0.00592856 1.57561 -5.54598 -1.16299 255 60 0 255 
0.0162141 0.0358475 -0.0162131 2.34152 -3.72699 -1.85218 254 117 0 254 
0.0193248 0.0358322 0.0313206 1.8939 -5.44096 1.34588 255 51 0 255 
0.0435544 0.0411101 0.00579916 2.69326 -5.12985 -1.37147 255 140 0 255 
0.0226191 0.0406052 -0.00793544 3.26705 -4.38226 -2.90168 255 84 0 255 
0.0191348 0.042782 -0.0192095 3.30951 -3.53079 -3.60004 255 142 0 255 
0.0414633 0.0456301 -0.00354513 2.15428 -3.32094 -4.18305 255 148 0 255 
0.0436925 0.0411968 0.01772 2.68886 -5.2698 1.16253 255 138 0 255 
0.0512872 0.0463959 0.00580531 3.8984 -4.06246 -1.58054 255 191 0 255 
0.0285777 0.105181 -0.0142381 2.75655 3.09064 -4.17402 49 255 0 255 
0.0306748 0.0445124 -0.00617993 2.85227 -3.95143 -3.81215 255 109 0 255 
-0.0184118 0.0948059 -0.0307434 -1.21287 3.57334 -4.94583 117 255 0 255 
-0.0315484 0.0343023 -0.0284081 -0.110917 -2.66033 -2.71114 255 153 0 255 
0.0260381 0.0475902 -0.0165794 3.80386 -2.91487 -3.52494 255 148 0 255 
0.0554197 0.0686378 0.00589653 3.36207 2.94023 -1.65163 198 255 0 255 
0.0520374 0.055073 -0.0024816 3.4577 -1.00766 -3.99417 255 224 0 255 
0.0567375 0.0542224 0.00512483 5.00204 -1.41081 -1.74292 255 240 0 255 
0.0428049 0.0553286 -0.00604704 2.6509 -1.11207 -5.47287 255 193 0 255 
-0.0620037 0.167422 -0.0527165 2.96056 0.0919716 -0.131225 0 66 255 255 
0.0341128 0.0541776 -0.00948346 3.43531 -2.56139 -4.37309 255 168 0 255 
0.029518 0.0560564 -0.0175875 4.50372 -1.62859 -3.8271 255 190 0 255 
-0.0177887 0.115911 -0.0157838 -0.479581 3.98903 -4.72182 0 255 8 255 
-0.0417838 0.0357602 -0.0264107 -2.2222 -1.22314 -2.16736 255 114 0 255 
-0.00518939 0.043046 -0.0273333 1.04691 -3.06621 -5.28833 255 208 0 255 
-0.0664059 0.0343649 -0.00416668 -2.07653 -1.83586 -1.79345 255 83 0 255 
0.0475414 0.0712174 0.00542617 4.09188 2.66426 -2.9334 194 255 0 255 
0.0249138 0.0825163 -0.0245877 3.01118 0.293548 -5.11064 167 255 0 255 
-0.0299024 0.0426031 -0.0283179 -1.5839 1.24604 -5.00013 255 135 0 255 
0.0218121 0.0515865 -0.0236492 3.53155 -1.91222 -4.3694 255 190 0 255 
-0.0271537 0.0351608 0.0509267 -1.34052 -2.64252 2.64466 255 46 0 255 
0.0161181 0.11563 -0.0145451 2.69941 2.91804 -4.24778 0 255 24 255 
0.031738 0.0679983 -0.0183532 4.22274 -0.576927 -4.4883 255 253 0 255 
0.0418226 0.0675201 -0.00551555 4.53063 0.794512 -4.06436 252 255 0 255 
0.0514871 0.0637279 -0.00174794 3.37864 1.86837 -3.9847 249 255 0 255 
-0.0893303 0.128309 0.0428023 -5.01632 0.411402 2.90533 0 255 133 255 
0.0459385 0.0796307 0.00579632 5.8754 1.35961 -1.41963 156 255 0 255 
-0.0705433 0.149897 -0.0387319 1.78814e-007 1.49012e-008 0 0 194 255 255 
-0.0429617 0.0430242 -0.0176288 -3.57938 3.21647 -2.8627 254 92 0 254 
-0.0719677 0.177848 -0.0474604 1.42579 3.98124 2.71157 0 67 255 255 
-0.0760529 0.177651 -0.0471457 -2.09716 2.44877 1.04628 0 71 255 255 
0.0304173 0.118495 0.00573814 4.17168 4.38684 -0.710073 0 255 50 255 
-0.0771451 0.167706 -0.0298798 -3.25785 2.47849 0.833212 0 176 255 255 
0.0202668 0.092861 -0.0237363 2.7201 2.43522 -5.11166 107 255 0 255 
-0.0254815 0.0798697 0.0510546 -2.77591 -2.31483 2.98481 255 211 0 255 
-0.0650541 0.0353259 0.0162237 -3.18831 -1.88058 1.2674 255 49 0 255 
-0.0647676 0.0350792 0.0294481 -3.1811 -2.3201 -0.51065 255 51 0 255 
-0.0644267 0.0414591 0.0304476 -4.34632 2.43753 -0.757653 255 86 0 255 
-0.06432 0.0352261 0.0387914 -2.58189 -2.31227 1.50197 255 69 0 255 
-0.0676 0.0340299 0.00590491 -3.03746 -2.92185 0.265574 255 68 0 255 
-0.0679534 0.0418588 0.00668394 -4.15717 2.29479 0.465258 255 111 0 255 
-0.0573497 0.0431548 0.0200229 -4.83864 3.06671 0.447312 255 112 0 255 
-0.0634632 0.0414321 0.0142052 -3.97623 3.5293 2.80357 255 85 0 255 
-0.059413 0.0471382 0.00628538 -4.62677 3.85882 -0.202286 255 143 0 255 
-0.0233834 0.0656416 0.0450976 -4.17715 -1.30511 4.42195 255 124 0 255 
-0.063538 0.071665 0.0379463 -1.65396 -3.76668 4.00597 181 255 0 255 
-0.0193036 0.0810128 -0.0384318 -0.681967 1.04699 -5.80396 184 255 0 255 
-0.0427206 0.0343557 -0.0191302 -1.66322 -3.40664 -0.587541 255 73 0 255 
-0.00690237 0.03464 -0.0202171 0.52507 -4.91033 -0.455127 255 152 0 255 
-0.0656787 0.0408332 -0.00401793 -3.12955 2.11646 -2.72048 255 112 0 255 
-0.0383907 0.0419218 -0.0264039 -1.81698 2.9907 -3.17126 255 134 0 255 
-0.0556585 0.0432866 -0.00758834 -3.00526 1.63632 -4.66804 254 118 0 254 
-0.0416785 0.0420276 -0.00999679 0.283493 -1.02993 -1.47717 255 49 0 255 
-0.0322294 0.0446593 -0.0167499 -2.09288 0.252037 -1.11927 255 70 0 255 
-0.0307385 0.0563307 -0.018517 -5.30856 -0.69195 -2.78221 255 135 0 255 
-0.0429026 0.0561897 -0.0113043 -1.89015 -0.67429 -5.72536 255 127 0 255 
-0.0550285 0.0566557 -0.00531375 -3.96306 -2.19274 -3.74713 255 161 0 255 
-0.0261858 0.0568836 -0.0282694 -4.19499 -0.98172 -4.26003 255 178 0 255 
-0.0552189 0.117461 -0.0133744 -1.03026 3.14901 -5.19759 18 255 0 255 
-0.0190658 0.0546695 -0.0318646 -1.69493 -2.01976 -5.49711 255 206 0 255 
-0.0687629 0.0686694 -0.00654941 -3.18712 -4.14877 -3.26391 248 255 0 255 
-0.0730504 0.06542 0.00552859 -3.55893 -4.78727 -1.06778 220 255 0 255 
-0.0207234 0.0672793 -0.036553 -1.98186 -1.79928 -5.19045 252 255 0 255 
-0.0290792 0.067426 -0.0290521 -4.88294 -1.44073 -3.42041 255 219 0 255 
-0.0328056 0.0664637 -0.0195215 -3.96795 -1.33899 -4.03286 255 192 0 255 
-0.0177608 0.0343319 -0.0259142 0.389287 -3.83184 -2.56193 255 145 0 255 
-0.0773687 0.0732571 -0.00409771 -3.92468 -2.9531 -2.75648 193 255 0 255 
0.0151616 0.126104 -0.00266395 2.16662 5.08613 -2.39403 0 255 98 255 
-0.0845255 0.0800572 0.00530702 -5.32181 -2.46971 -1.2999 117 255 0 255 
-0.0793517 0.0798559 -0.00640565 -4.54577 -2.04057 -3.25521 164 255 0 255 
-0.0309728 0.0794701 -0.0312475 -4.67901 -0.0602 -3.49662 227 255 0 255 
-0.0355144 0.081801 -0.0226887 -3.62256 -1.04523 -4.65662 231 255 0 255 
-0.068141 0.0801227 -0.0164278 -2.61187 -1.71532 -4.97456 194 255 0 255 
-0.0512932 0.034227 -0.0129013 -2.42636 -1.51299 -1.98677 255 109 0 255 
0.0161924 0.080479 -0.0292174 2.77869 0.656839 -5.5099 160 255 0 255 
-0.0144478 0.0879274 -0.0380297 0.60533 0.597374 -3.77498 137 255 0 255 
-0.0173157 0.0432674 -0.0282906 -0.117508 -1.5884 -6.0445 255 179 0 255 
-0.0193328 0.0979251 -0.024792 0 0 5.96046e-008 80 255 0 255 
-0.0555479 0.0336816 -0.00619013 -1.28688 -4.0532 -2.50887 255 65 0 255 
0.00702627 0.0978418 -0.0246055 1.19209e-007 -5.96046e-008 0 32 255 0 255 
-0.0148892 0.126068 -0.00252126 -1.84495 5.45891 -2.19579 0 255 99 255 
0.0175205 0.0552114 -0.0272756 2.49935 -1.33232 -5.35779 255 222 0 255 
-0.00953661 0.0794104 -0.0379859 0.856718 0.571616 -5.99632 161 255 0 255 
0.00524266 0.0391336 -0.021947 0.985093 -4.1278 -3.98147 255 152 0 255 
0.0175653 0.0679339 -0.0289388 2.88644 -0.368187 -5.4101 225 255 0 255 
-0.0057907 0.128077 -0.00285105 -0.612037 5.57139 -2.39365 0 255 125 255 
0.00626556 0.128047 -0.0031705 0.629306 5.50192 -2.54855 0 255 128 255 
0.00559979 0.0346604 -0.0179318 -1.03283 -2.57284 -0.532891 255 131 0 255 
0.029824 0.0359142 0.00488977 1.64119 -5.54352 -1.25619 255 59 0 255 
0.00625193 0.0459623 -0.0263782 1.2828 -2.88491 -5.3863 255 197 0 255 
0.0143253 0.0473484 -0.0251513 1.84201 -2.89183 -5.0886 255 191 0 255 
0.00604086 0.0555073 -0.0304314 1.40742 -1.71457 -5.8199 255 254 0 255 
-0.00613413 0.0546372 -0.032635 0.529714 -1.8774 -5.86074 245 255 0 255 
-0.0346694 0.057124 -0.0114953 -2.20451 -0.653566 -3.72372 255 145 0 255 
-0.00684543 0.0679742 -0.0359406 0.984486 -1.30271 -6.00938 202 255 0 255 
0.0056558 0.0676237 -0.0329199 1.67394 -0.882773 -5.96241 187 255 0 255 
-0.0569732 0.0651628 -0.00958219 -1.82718 -3.46409 -4.84634 255 205 0 255 
-0.0422796 0.0699944 -0.0161463 -1.71079 -2.36326 -5.46946 255 208 0 255 
-0.0175719 0.0705473 -0.0382261 -0.355806 -1.41454 -5.69438 226 255 0 255 
-0.055586 0.0722983 -0.0161218 -0.858689 -3.21359 -5.21103 255 244 0 255 
-0.0637884 0.0712697 -0.0138535 -2.1554 -3.34922 -4.28034 249 255 0 255 
0.00568561 0.0790547 -0.0339189 1.95459 0.53848 -5.80258 132 255 0 255 
-0.00338429 0.0804511 -0.0367226 1.52373 0.75271 -5.79542 137 254 0 254 
-0.0248988 0.0815004 -0.0371078 -2.55498 0.946793 -4.71364 196 255 0 255 
-0.0412513 0.0791378 -0.0197746 -1.23804 -1.75056 -5.82847 247 255 0 255 
-0.0735819 0.0777026 -0.0122023 -1.19209e-007 4.17233e-007 -2.38419e-007 170 255 0 255 
-0.018062 0.0352627 -0.0195401 -0.0747668 -5.66528 2.28915 254 110 0 254 
-0.031577 0.0358487 -0.0179669 0.537923 -4.15721 3.45062 255 106 0 255 
-0.00602034 0.0381237 -0.0145184 0.0310759 -5.77871 1.88367 255 129 0 255 
-0.0177811 0.0382546 -0.0154503 -0.375732 -5.59789 2.02569 255 84 0 255 
0.00753447 0.0355596 -0.00650063 -1.91611 -5.65248 -0.560883 255 67 0 255 
0.00430437 0.0384017 -0.0071754 -2.16823 -5.33795 -0.717908 255 73 0 255 
-0.00593935 0.038948 -0.00592129 -0.089203 -6.2494 0.143897 254 91 0 254 
-0.0176142 0.0386055 -0.00584508 0.10804 -6.27815 0.0750933 254 67 0 254 
-0.0430308 0.0341391 -0.00565972 1.32995 -3.94632 -0.958275 255 0 0 255 
0.0189222 0.0351076 0.00499769 0.265243 -4.71708 -0.048001 255 0 0 255 
-0.0299129 0.0383912 -0.00582677 -0.352671 -4.27544 -1.55043 255 0 0 255 
0.00512066 0.0348398 0.00558498 -0.996475 -4.45647 -0.603224 255 0 0 255 
0.00103528 0.0375917 0.000952222 -2.0922 -5.73005 -1.32557 255 37 0 255 
-0.00584714 0.0383419 0.00590803 -0.924765 -6.11255 -0.52863 255 63 0 255 
-0.0424621 0.0343144 0.00590597 -0.00543314 -2.38619 0.104099 255 0 0 255 
-0.017873 0.0383166 0.00599471 0.11015 -6.28013 -0.151343 255 58 0 255 
0.028662 0.0358411 0.0187496 1.38543 -5.86099 0.887408 255 51 0 255 
-0.055026 0.0336204 0.00583816 -0.132679 -4.59326 0.05435 255 0 0 255 
-0.0284733 0.0381489 0.00441853 0.0600316 -3.10929 -0.0877337 255 0 0 255 
-0.000947006 0.0357374 0.0103469 -2.24237 -5.76029 -0.737406 254 42 0 254 
0.0193224 0.0351814 0.0196616 0.291792 -4.84249 0.191315 255 0 0 255 
-0.0342325 0.033759 0.00717517 -0.136436 -1.60439 0.182581 255 0 0 255 
0.00536022 0.0345956 0.0179871 -0.946701 -4.25898 0.841483 255 0 0 255 
-0.000385714 0.0351459 0.0134171 -1.88092 -5.70752 0.206723 255 40 0 255 
0.0334119 0.0376179 0.0210082 1.82807 -5.26223 2.01355 255 81 0 255 
-0.00589791 0.0381782 0.0177062 -0.920761 -6.11377 0.522082 255 64 0 255 
-0.0352445 0.0350571 0.0178257 0.501732 -2.63762 0.133116 255 0 0 255 
-0.0178078 0.0381962 0.0178114 0.175967 -6.27854 0.0972876 255 45 0 255 
-0.0261898 0.0377592 0.0177044 0.571409 -4.81093 0.123114 255 0 0 255 
-0.0563247 0.0336762 0.0175265 -0.626684 -3.25029 0.0833333 255 0 0 255 
0.00114114 0.037661 0.0223414 -1.7629 -5.72221 1.85785 255 37 0 255 
0.0100253 0.0355029 0.029656 -0.583663 -4.87888 0.47356 255 0 0 255 
0.00550127 0.0385556 0.0296609 -1.01669 -2.66745 0.667822 255 0 0 255 
-0.00596581 0.0388946 0.0299252 -0.120483 -4.57854 0.62875 255 0 0 255 
-0.0330745 0.0355217 0.0292236 1.35741 -5.03881 -0.080643 255 0 0 255 
-0.0277717 0.0382563 0.0322865 0.649143 -3.30283 0.430252 255 0 0 255 
-0.0179091 0.0385902 0.0296167 0.313225 -6.10457 1.12754 255 55 0 255 
-0.0419404 0.0343698 0.0299668 0.379597 -4.17791 0.240582 255 0 0 255 
0.015243 0.0356116 0.0412692 1.58346 -3.19187 2.48998 255 51 0 255 
-0.0554301 0.0342555 0.0297952 -0.287945 -4.60747 0.158563 255 0 0 255 
-0.0660515 0.0611144 0.00585548 -3.10246 -5.1893 -1.09632 255 244 0 255 
-0.00654912 0.0350372 0.0453959 0.817535 -0.90484 2.95896 255 0 0 255 
-0.0307826 0.0347596 0.0432959 -1.52744 -2.86749 1.88877 255 0 0 255 
-0.0180834 0.0348142 0.0458772 0.904464 -2.73188 1.39903 255 0 0 255 
3 164 94 98 
3 224 335 49 
3 331 350 376 
3 124 122 237 
3 61 89 69 
3 61 161 94 
3 24 89 50 
3 109 25 35 
3 27 34 152 
3 444 443 435 
3 94 35 153 
3 3 61 69 
3 24 69 89 
3 38 218 104 
3 22 42 39 
3 14 24 34 
3 290 166 371 
3 226 76 224 
3 204 197 72 
3 82 3 14 
3 13 81 23 
3 99 13 23 
3 23 110 30 
3 110 2 30 
3 166 265 371 
3 90 61 3 
3 34 24 50 
3 293 167 207 
3 80 78 85 
3 61 94 164 
3 84 238 80 
3 4 161 61 
3 132 149 64 
3 196 22 228 
3 59 46 242 
3 179 84 80 
3 265 96 371 
3 52 258 207 
3 121 127 141 
3 343 168 346 
3 232 227 220 
3 232 243 227 
3 232 246 243 
3 57 126 56 
3 57 130 126 
3 221 232 220 
3 4 61 90 
3 134 80 85 
3 176 217 175 
3 4 0 161 
3 78 21 50 
3 126 130 129 
3 56 126 129 
3 111 182 201 
3 96 70 371 
3 89 164 98 
3 123 6 55 
3 197 87 72 
3 416 419 412 
3 245 80 179 
3 21 78 36 
3 61 164 89 
3 67 132 64 
3 150 149 132 
3 384 387 325 
3 214 221 112 
3 214 233 232 
3 221 214 232 
3 244 246 232 
3 233 244 232 
3 244 252 246 
3 244 143 119 
3 252 244 119 
3 127 142 141 
3 67 150 132 
3 82 90 3 
3 112 180 214 
3 244 253 143 
3 111 201 269 
3 37 74 63 
3 133 150 67 
3 118 133 67 
3 133 180 150 
3 191 214 180 
3 181 191 180 
3 191 234 233 
3 214 191 233 
3 234 244 233 
3 234 7 244 
3 244 98 253 
3 253 98 143 
3 216 217 115 
3 181 180 133 
3 15 16 219 
3 254 98 244 
3 7 254 244 
3 74 11 63 
3 14 3 24 
3 3 69 24 
3 217 216 175 
3 85 78 50 
3 73 78 80 
3 7 98 254 
3 105 133 118 
3 1 248 196 
3 48 241 100 
3 42 156 39 
3 149 173 344 
3 135 133 105 
3 106 135 105 
3 31 7 234 
3 148 31 234 
3 89 98 7 
3 31 89 7 
3 235 84 230 
3 14 27 236 
3 106 125 135 
3 19 20 62 
3 131 54 159 
3 34 50 21 
3 82 14 236 
3 201 52 43 
3 310 308 280 
3 131 159 54 
3 271 310 280 
3 27 14 34 
3 177 89 31 
3 238 73 80 
3 130 176 175 
3 354 331 381 
3 129 130 175 
3 125 136 135 
3 251 52 201 
3 106 56 125 
3 56 129 136 
3 125 56 136 
3 129 175 174 
3 136 129 174 
3 175 216 215 
3 174 175 215 
3 115 114 215 
3 216 115 215 
3 134 85 31 
3 85 177 31 
3 50 89 177 
3 85 50 177 
3 179 80 245 
3 400 407 367 
3 263 83 121 
3 217 179 115 
3 149 132 64 
3 178 187 116 
3 142 178 116 
3 326 120 319 
3 57 83 267 
3 304 391 294 
3 355 354 359 
3 128 29 11 
3 267 273 130 
3 48 16 10 
3 301 302 266 
3 196 66 22 
3 230 84 217 
3 247 13 243 
3 110 81 13 
3 271 178 266 
3 110 13 247 
3 278 277 267 
3 48 10 329 
3 258 11 275 
3 1 196 228 
3 154 247 243 
3 154 110 247 
3 263 141 270 
3 154 60 110 
3 60 154 110 
3 154 60 110 
3 11 74 37 
3 274 5 51 
3 252 154 243 
3 119 252 243 
3 109 110 60 
3 39 2 110 
3 109 39 110 
3 32 128 29 
3 32 128 11 
3 309 300 311 
3 252 119 154 
3 73 145 255 
3 67 64 259 
3 32 29 128 
3 258 275 43 
3 154 119 60 
3 119 109 60 
3 137 256 248 
3 270 267 83 
3 235 238 84 
3 267 130 57 
3 258 32 11 
3 302 310 271 
3 51 238 235 
3 266 302 271 
3 5 36 255 
3 51 235 230 
3 51 145 73 
3 286 51 230 
3 287 274 286 
3 119 25 109 
3 10 40 289 
3 120 48 329 
3 274 51 286 
3 276 230 217 
3 10 16 15 
3 51 5 145 
3 43 11 201 
3 176 276 217 
3 143 25 119 
3 158 207 167 
3 360 321 357 
3 130 273 276 
3 122 198 237 
3 270 278 267 
3 77 218 38 
3 15 6 40 
3 280 187 178 
3 271 280 178 
3 258 207 32 
3 66 58 22 
3 279 287 278 
3 155 139 172 
3 121 141 263 
3 288 41 274 
3 287 288 274 
3 276 176 130 
3 289 288 205 
3 274 41 5 
3 288 287 279 
3 329 10 289 
3 16 100 219 
3 127 178 142 
3 273 267 276 
3 252 119 243 
3 116 279 141 
3 41 123 5 
3 116 288 279 
3 142 116 141 
3 207 158 32 
3 276 277 230 
3 101 102 163 
3 299 298 294 
3 287 286 278 
3 5 255 145 
3 131 159 70 
3 275 11 43 
3 32 158 250 
3 205 288 116 
3 73 36 78 
3 120 329 319 
3 297 391 300 
3 84 179 217 
3 17 77 38 
3 255 36 73 
3 263 270 83 
3 249 248 1 
3 286 230 277 
3 11 37 66 
3 43 52 258 
3 267 277 276 
3 279 278 270 
3 141 279 270 
3 51 73 238 
3 47 36 5 
3 201 66 269 
3 201 11 66 
3 309 310 302 
3 300 309 302 
3 182 33 251 
3 278 286 277 
3 243 246 252 
3 416 427 419 
3 96 131 70 
3 66 256 111 
3 65 335 189 
3 113 374 407 
3 144 139 155 
3 226 224 139 
3 358 400 396 
3 30 91 203 
3 226 139 144 
3 46 328 242 
3 307 304 298 
3 70 159 54 
3 103 265 284 
3 443 261 446 
3 17 38 28 
3 88 200 239 
3 72 170 211 
3 138 17 28 
3 35 1 228 
3 295 299 294 
3 18 131 140 
3 18 59 131 
3 207 258 52 
3 188 70 54 
3 104 87 197 
3 222 48 120 
3 325 326 311 
3 326 281 120 
3 54 159 292 
3 386 299 295 
3 138 59 17 
3 48 100 16 
3 59 242 17 
3 296 121 83 
3 10 15 40 
3 242 91 17 
3 225 9 211 
3 314 322 384 
3 326 325 281 
3 170 225 211 
3 17 91 77 
3 144 76 226 
3 155 9 225 
3 159 131 28 
3 172 139 170 
3 131 138 28 
3 281 264 120 
3 264 222 120 
3 139 155 225 
3 139 225 170 
3 314 325 313 
3 386 295 390 
3 292 159 28 
3 132 149 344 
3 424 427 416 
3 49 335 65 
3 314 313 304 
3 111 269 66 
3 9 71 72 
3 211 9 72 
3 306 316 353 
3 307 314 304 
3 325 311 313 
3 40 41 288 
3 289 40 288 
3 40 6 41 
3 6 123 41 
3 22 39 109 
3 165 312 76 
3 299 307 298 
3 144 165 76 
3 312 107 76 
3 376 381 331 
3 165 107 312 
3 155 172 330 
3 35 228 22 
3 45 184 160 
3 42 62 156 
3 2 39 62 
3 58 42 22 
3 49 71 9 
3 280 116 187 
3 280 205 116 
3 155 330 144 
3 280 289 205 
3 319 280 308 
3 162 77 20 
3 20 77 91 
3 329 289 280 
3 319 329 280 
3 156 62 39 
3 372 408 375 
3 190 1 0 
3 1 35 0 
3 42 19 62 
3 35 161 0 
3 190 0 97 
3 35 22 109 
3 76 53 224 
3 161 35 94 
3 49 9 155 
3 224 49 155 
3 29 63 11 
3 160 162 19 
3 76 333 53 
3 153 25 143 
3 71 49 65 
3 2 20 30 
3 62 20 2 
3 55 8 5 
3 169 0 4 
3 6 8 55 
3 35 25 153 
3 160 218 162 
3 218 77 162 
3 15 334 6 
3 334 8 6 
3 332 76 93 
3 8 47 5 
3 98 153 143 
3 94 153 98 
3 219 334 15 
3 332 333 76 
3 93 76 107 
3 100 334 219 
3 160 19 45 
3 19 162 20 
3 340 132 344 
3 45 19 42 
3 27 47 8 
3 27 36 47 
3 80 115 179 
3 45 42 58 
3 71 184 45 
3 236 27 8 
3 334 236 8 
3 332 93 333 
3 27 152 36 
3 223 64 340 
3 236 334 117 
3 152 21 36 
3 134 148 115 
3 115 148 114 
3 152 34 21 
3 5 123 55 
3 337 68 191 
3 333 93 282 
3 256 66 196 
3 135 174 347 
3 183 180 195 
3 117 285 236 
3 182 111 63 
3 354 318 352 
3 114 234 68 
3 71 65 184 
3 135 136 174 
3 191 215 337 
3 337 215 114 
3 63 33 182 
3 133 135 181 
3 135 347 181 
3 110 23 81 
3 157 180 183 
3 149 157 183 
3 227 147 220 
3 12 23 30 
3 151 99 46 
3 174 215 191 
3 99 328 46 
3 114 148 234 
3 149 150 157 
3 220 147 284 
3 79 186 336 
3 68 234 191 
3 396 357 356 
3 99 23 12 
3 328 99 12 
3 337 114 68 
3 356 358 396 
3 338 343 342 
3 223 340 339 
3 265 103 96 
3 341 223 339 
3 347 174 191 
3 182 251 201 
3 134 115 80 
3 12 30 203 
3 345 343 338 
3 147 227 103 
3 33 108 251 
3 95 20 91 
3 181 347 191 
3 345 346 343 
3 157 150 180 
3 103 227 18 
3 66 240 58 
3 345 344 346 
3 146 32 108 
3 445 125 444 
3 30 95 91 
3 124 373 374 
3 137 249 72 
3 344 345 338 
3 344 168 346 
3 12 203 328 
3 284 147 103 
3 240 66 37 
3 344 173 168 
3 314 384 322 
3 107 282 93 
3 76 53 107 
3 107 53 282 
3 282 53 333 
3 165 76 107 
3 315 202 291 
3 165 144 76 
3 407 374 367 
3 144 53 76 
3 388 389 92 
3 155 144 330 
3 144 224 53 
3 432 431 434 
3 155 189 144 
3 144 189 224 
3 189 335 53 
3 224 189 53 
3 146 29 32 
3 382 88 209 
3 331 316 350 
3 331 353 316 
3 357 367 366 
3 360 357 366 
3 367 374 373 
3 366 367 373 
3 373 407 374 
3 388 92 169 
3 170 65 155 
3 155 65 189 
3 328 203 91 
3 413 421 414 
3 356 331 358 
3 242 328 91 
3 168 343 346 
3 113 198 122 
3 124 113 122 
3 239 200 315 
3 331 356 357 
3 372 26 102 
3 375 372 102 
3 26 163 102 
3 408 372 375 
3 72 87 65 
3 170 72 65 
3 87 184 65 
3 63 108 11 
3 63 29 108 
3 370 285 231 
3 389 370 231 
3 131 18 140 
3 33 63 108 
3 368 306 321 
3 374 113 124 
3 285 324 268 
3 231 285 268 
3 336 272 186 
3 224 155 139 
3 363 369 372 
3 86 193 163 
3 208 63 111 
3 380 305 202 
3 356 357 321 
3 346 354 352 
3 346 168 354 
3 168 359 354 
3 364 290 369 
3 363 364 369 
3 290 371 372 
3 369 290 372 
3 371 70 26 
3 372 371 26 
3 70 188 26 
3 188 54 26 
3 54 163 26 
3 54 86 163 
3 54 28 86 
3 28 38 86 
3 38 197 86 
3 38 104 197 
3 104 218 87 
3 218 160 87 
3 160 184 87 
3 58 240 208 
3 240 37 63 
3 208 240 63 
3 340 64 132 
3 343 168 346 
3 400 367 357 
3 396 400 357 
3 54 292 28 
3 96 103 18 
3 346 168 343 
3 249 137 248 
3 200 209 199 
3 79 222 281 
3 327 308 309 
3 343 346 352 
3 383 388 169 
3 200 88 209 
3 285 186 324 
3 241 48 79 
3 16 100 79 
3 303 100 79 
3 323 105 451 
3 100 303 186 
3 100 16 79 
3 321 353 331 
3 236 285 370 
3 389 231 92 
3 100 285 117 
3 108 63 11 
3 186 303 79 
3 88 382 209 
3 82 236 389 
3 100 241 79 
3 45 72 71 
3 0 169 97 
3 45 137 72 
3 285 100 186 
3 137 45 58 
3 199 378 305 
3 208 137 58 
3 356 331 357 
3 305 380 202 
3 378 349 305 
3 169 92 315 
3 192 262 75 
3 361 192 75 
3 291 202 237 
3 258 293 207 
3 272 79 377 
3 324 186 268 
3 268 186 88 
3 90 389 388 
3 169 315 291 
3 97 169 291 
3 79 320 377 
3 4 383 169 
3 379 317 368 
3 200 202 315 
3 92 239 315 
3 306 353 321 
3 370 389 236 
3 48 222 79 
3 206 361 185 
3 361 206 185 
3 92 231 239 
3 356 321 331 
3 190 171 185 
3 249 190 185 
3 206 198 361 
3 198 192 361 
3 90 388 383 
3 305 124 237 
3 327 311 326 
3 4 90 383 
3 190 249 1 
3 206 361 185 
3 171 206 185 
3 202 305 237 
3 108 29 146 
3 308 310 309 
3 334 100 117 
3 90 82 389 
3 79 336 186 
3 224 53 335 
3 354 381 318 
3 231 268 239 
3 186 272 209 
3 88 186 209 
3 200 199 202 
3 327 326 319 
3 308 327 319 
3 309 311 327 
3 435 443 446 
3 199 305 202 
3 97 171 190 
3 171 97 206 
3 97 291 206 
3 237 198 206 
3 291 237 206 
3 406 124 305 
3 399 402 400 
3 373 374 407 
3 300 304 311 
3 304 313 311 
3 407 213 113 
3 208 111 256 
3 403 402 399 
3 363 403 399 
3 29 128 32 
3 403 375 402 
3 363 399 359 
3 194 192 198 
3 193 86 75 
3 400 213 407 
3 272 336 79 
3 79 281 320 
3 300 302 297 
3 294 298 304 
3 299 322 314 
3 307 299 314 
3 322 384 314 
3 377 281 325 
3 387 377 325 
3 281 377 320 
3 355 358 331 
3 101 102 262 
3 363 375 403 
3 197 204 75 
3 102 101 262 
3 299 384 322 
3 262 163 193 
3 318 343 352 
3 299 322 384 
3 299 393 322 
3 322 393 384 
3 137 208 256 
3 86 197 75 
3 186 79 336 
3 222 264 281 
3 185 361 75 
3 365 360 366 
3 386 392 393 
3 299 386 393 
3 393 392 384 
3 392 394 384 
3 394 398 387 
3 384 394 387 
3 404 377 387 
3 398 404 387 
3 404 209 377 
3 209 272 377 
3 399 400 358 
3 359 399 358 
3 101 163 262 
3 262 193 75 
3 102 101 375 
3 204 72 249 
3 31 148 134 
3 424 437 427 
3 359 358 355 
3 400 402 213 
3 204 249 185 
3 351 317 386 
3 390 351 386 
3 317 392 386 
3 392 317 394 
3 317 395 394 
3 395 397 398 
3 394 395 398 
3 397 405 404 
3 398 397 404 
3 199 209 404 
3 405 199 404 
3 268 88 239 
3 75 204 185 
3 318 352 354 
3 243 18 227 
3 397 385 405 
3 385 199 405 
3 262 192 194 
3 101 262 194 
3 18 131 96 
3 349 378 199 
3 385 349 199 
3 250 158 167 
3 293 250 167 
3 379 362 395 
3 317 379 395 
3 395 362 397 
3 362 365 397 
3 365 401 397 
3 401 349 385 
3 397 401 385 
3 375 194 213 
3 213 194 113 
3 375 101 194 
3 354 352 318 
3 342 343 318 
3 375 213 402 
3 451 261 443 
3 32 250 293 
3 258 32 293 
3 113 194 198 
3 351 409 368 
3 355 331 354 
3 339 340 344 
3 372 375 363 
3 339 344 338 
3 368 321 379 
3 360 362 379 
3 360 365 362 
3 366 365 362 
3 365 366 362 
3 406 349 401 
3 365 406 401 
3 108 258 52 
3 258 108 32 
3 305 349 406 
3 297 302 301 
3 52 251 108 
3 321 360 379 
3 384 325 314 
3 373 406 365 
3 366 373 365 
3 373 349 406 
3 349 373 406 
3 373 124 406 
3 106 105 323 
3 439 434 431 
3 18 243 229 
3 83 57 260 
3 447 83 260 
3 418 425 429 
3 439 441 434 
3 441 442 434 
3 257 106 323 
3 391 425 418 
3 435 437 444 
3 257 323 452 
3 391 418 294 
3 296 440 441 
3 440 296 441 
3 131 59 138 
3 294 413 295 
3 95 30 20 
3 428 432 434 
3 422 424 415 
3 294 420 413 
3 425 296 429 
3 414 422 415 
3 425 121 296 
3 296 440 431 
3 452 323 451 
3 296 83 447 
3 431 441 439 
3 445 444 436 
3 429 296 431 
3 450 56 106 
3 301 121 433 
3 106 257 452 
3 414 415 411 
3 390 413 386 
3 18 229 59 
3 59 229 46 
3 386 414 411 
3 301 433 425 
3 248 256 196 
3 411 416 412 
3 300 391 304 
3 422 436 424 
3 46 229 151 
3 127 121 301 
3 412 419 356 
3 295 413 390 
3 351 390 411 
3 442 56 125 
3 409 351 412 
3 247 243 13 
3 330 172 155 
3 451 118 67 
3 364 44 290 
3 290 44 166 
3 166 210 265 
3 265 210 284 
3 442 436 434 
3 229 99 151 
3 364 449 44 
3 449 283 44 
3 418 420 294 
3 363 449 364 
3 212 284 210 
3 44 210 166 
3 420 428 422 
3 44 212 210 
3 247 229 243 
3 229 247 99 
3 127 266 178 
3 56 450 260 
3 413 420 421 
3 359 168 363 
3 363 168 449 
3 415 424 416 
3 296 447 260 
3 212 220 284 
3 436 437 424 
3 351 411 412 
3 440 441 431 
3 283 212 44 
3 451 67 261 
3 168 173 449 
3 449 173 283 
3 426 342 318 
3 381 426 318 
3 212 348 220 
3 266 127 301 
3 426 338 342 
3 149 283 173 
3 149 212 283 
3 438 338 426 
3 433 121 425 
3 149 183 212 
3 414 421 422 
3 172 170 155 
3 368 317 351 
3 350 381 376 
3 67 259 261 
3 183 112 212 
3 212 112 348 
3 348 112 220 
3 432 431 434 
3 448 339 338 
3 438 448 338 
3 420 431 432 
3 112 221 220 
3 428 420 432 
3 431 432 434 
3 417 381 350 
3 422 428 434 
3 423 426 381 
3 417 423 381 
3 56 260 57 
3 451 105 118 
3 296 260 440 
3 386 413 414 
3 306 350 316 
3 448 341 339 
3 415 416 411 
3 436 444 437 
3 259 341 448 
3 297 425 391 
3 442 125 445 
3 450 106 452 
3 410 350 306 
3 341 259 223 
3 355 417 350 
3 410 355 350 
3 259 64 223 
3 410 356 350 
3 356 410 350 
3 356 355 410 
3 355 419 417 
3 247 13 99 
3 195 112 183 
3 180 112 195 
3 419 355 356 
3 301 425 297 
3 390 386 411 
3 446 259 448 
3 446 261 259 
3 434 436 422 
3 421 420 422 
3 409 410 306 
3 368 409 306 
3 412 356 410 
3 409 412 410 
3 442 445 436 
3 435 423 430 
